<svg version="1.1" id="Layer_1" xmlns="http://www.w3.org/2000/svg" x="0" y="0" viewBox="-842 -14 836 411" xml:space="preserve" aria-hidden="true" focusable="false" tabindex="-1" pointer-events="none"><style type="text/css">.st0{fill:#fff}.st1{fill:#d7d7d7}.st2{fill:#64b5f6}.st3{fill:#4285f4}.st4{fill:#2269d1}</style><path class="st0" d="M-391.2 328.3l-1.2 1.8c-12.2 17.9-41 32.5-64 32.5-22.8 0-51.2-17.6-62.5-38.8l156.1-64.6-4.2-10.4c-4.3-11.5-29-69.2-93.1-69.2-58.5 0-102.5 46.7-102.5 108.6S-516.3 397-454.9 397c49.8 0 78.7-30 88.9-43l.6-.7-21.8-21.1-4-3.9zM-528 291.4c-.4-29.3 11.2-47.6 21.2-57.9 12-12.4 28.4-19.8 43.9-19.8 24.7 0 46.6 11.6 53.8 28.3L-528 291.4zM-839.7 89.8h46.8l166.7 234.5h1.7l-1.7-57.7V89.8h38.5v301h-40.1L-801.2 145h-1.7l1.7 59.2v186.5h-38.5V89.8z"/><g id="XMLID_39_"><path class="st0" d="M-842 12.7C-842-2-829.6-14-814.9-14c8.1 0 13.9 3.2 18.3 7.4l-5.1 5.1c-3.1-2.9-7.4-5.2-13.1-5.2-10.7 0-19.1 8.7-19.1 19.4s8.4 19.4 19.1 19.4c7 0 10.9-2.8 13.5-5.3 2.1-2.1 3.4-5.1 4-9.2h-17.6v-7.3h24.5c.3 1.3.4 2.9.4 4.6 0 5.5-1.5 12.2-6.3 17-4.7 4.9-10.7 7.5-18.6 7.5-14.7 0-27.1-12-27.1-26.7zM-770.2 5c-9.5 0-17.2 7.2-17.2 17.2 0 9.9 7.7 17.2 17.2 17.2s17.2-7.3 17.2-17.2c.1-10-7.7-17.2-17.2-17.2zm0 27.6c-5.2 0-9.7-4.3-9.7-10.4 0-6.2 4.5-10.4 9.7-10.4s9.7 4.2 9.7 10.4c0 6.1-4.5 10.4-9.7 10.4zM-732.6 5c-9.5 0-17.2 7.2-17.2 17.2 0 9.9 7.7 17.2 17.2 17.2s17.2-7.3 17.2-17.2c.1-10-7.7-17.2-17.2-17.2zm0 27.6c-5.2 0-9.7-4.3-9.7-10.4 0-6.2 4.5-10.4 9.7-10.4 5.2 0 9.7 4.2 9.7 10.4 0 6.1-4.5 10.4-9.7 10.4zM-686.4 6v2.8h-.3c-1.7-2-4.9-3.8-9-3.8-8.6 0-16.5 7.5-16.5 17.2 0 9.6 7.9 17.1 16.5 17.1 4.1 0 7.4-1.8 9-3.9h.3v2.5c0 6.6-3.5 10.1-9.2 10.1-4.6 0-7.5-3.3-8.7-6.1l-6.6 2.7c1.9 4.6 6.9 10.2 15.2 10.2 8.8 0 16.3-5.2 16.3-17.9V6h-7zm-8.7 26.6c-5.2 0-9.6-4.4-9.6-10.3 0-6.1 4.4-10.5 9.6-10.5 5.1 0 9.2 4.4 9.2 10.5 0 5.9-4 10.3-9.2 10.3zM-674-12.2h7.5v50.5h-7.5zM-645.8 32.6c-3.8 0-6.6-1.8-8.3-5.2l23-9.5-.8-2c-1.4-3.8-5.8-10.9-14.7-10.9-8.8 0-16.2 7-16.2 17.2 0 9.6 7.3 17.2 17 17.2 7.9 0 12.4-4.8 14.3-7.6l-5.9-3.9c-1.9 2.8-4.6 4.7-8.4 4.7zm-.6-21c3 0 5.5 1.5 6.4 3.6l-15.4 6.4c-.2-6.6 5.2-10 9-10z"/></g><path class="st0" d="M-617.7 15.9c0-13.9 10.5-24.3 24.2-24.3 7 0 12.9 2.8 17.1 7.6l-4.2 4c-3.3-4-7.6-5.9-12.9-5.9-9.8 0-18.1 7.2-18.1 18.6s8.3 18.6 18.1 18.6c5.9 0 10.8-2.7 14.3-6.8l4.2 4.2c-4.1 4.9-10.7 8.3-18.5 8.3-13.7.1-24.2-10.4-24.2-24.3zM-569.7 39.2V-7.4h6v46.6h-6zM-525.7 23.3c0 9.7-6.8 17-16.4 17-9.6 0-16.4-7.3-16.4-17s6.8-17 16.4-17c9.5 0 16.4 7.3 16.4 17zm-6 0c0-7.3-5.1-11.5-10.4-11.5-5.3 0-10.4 4.2-10.4 11.5s5.1 11.5 10.4 11.5c5.3 0 10.4-4.2 10.4-11.5zM-498.3 39.2v-4.4h-.3c-1.8 2.9-5.7 5.5-10.1 5.5-8.2 0-12.2-5.5-12.2-13.4V7.3h6v18.5c0 6.6 3.3 8.9 7.9 8.9 5.2 0 8.4-5 8.4-9.9V7.3h6v31.9h-5.7zM-487.5 23.3c0-9.8 7.1-17 15.2-17 5.1 0 9 2.5 10.9 5.5h.3l-.3-4.4V-7.4h6v46.6h-5.7v-4.4h-.3c-1.8 2.9-5.8 5.5-10.9 5.5-8.1 0-15.2-7.3-15.2-17zm26.3 0c0-7.3-4.8-11.5-10.1-11.5s-10.2 4.4-10.2 11.5c0 7.2 4.8 11.5 10.2 11.5 5.3 0 10.1-4.2 10.1-11.5zM-44.9 184.3v-93h-36.3v93h-38.7v37.3h38.7v169.2h36.3V221.6H-6v-37.3z"/><path transform="rotate(-134.999 -192.93 343.674)" class="st1" d="M-247.9 324.6H-138v38.1h-109.9z"/><path transform="rotate(-45.001 -192.965 239.038)" class="st1" d="M-247.9 220H-138v38.1h-109.9z"/><path class="st2" d="M-245.3 264.4l-77.7-77.7-26.9 26.9 77.7 77.8 26.9 26.9 26.9-26.9z"/><path transform="rotate(-45.001 -297.625 343.634)" class="st3" d="M-352.6 324.6h109.9v38.1h-109.9z"/><path class="st4" d="M-286.1 305.3l13.9-13.9 26.9 26.9z"/></svg>