<svg width="185" height="187" xmlns="http://www.w3.org/2000/svg">

 <g>
  <title>background</title>
  <rect fill="none" id="canvas_background" height="189" width="187" y="-1" x="-1"/>
 </g>
 <g>
  <title>Layer 1</title>
  <g id="svgg">
   <path fill-rule="evenodd" fill="#000000" d="m177.915054,11.102579c1.224808,0.267794 2.906265,0.314078 2.759552,0.076867c-0.088211,-0.143815 -0.857224,-0.243824 -1.707825,-0.223162c-0.850632,0.02149 -1.323746,0.087612 -1.051727,0.146295m-13.748352,8.742125c0,1.000092 0.061798,1.40922 0.13765,0.909174c0.074997,-0.500046 0.074997,-1.318302 0,-1.818348c-0.075851,-0.500046 -0.13765,-0.090918 -0.13765,0.909174m-16.343872,0.900084c0.585205,0.072733 1.623764,0.074387 2.307877,0.00248c0.684128,-0.071907 0.205246,-0.131418 -1.064087,-0.13307c-1.269333,-0.001654 -1.828995,0.05703 -1.24379,0.13059m-43.842194,5.955917c0.951996,0.06695 2.509811,0.06695 3.461807,0c0.951996,-0.066948 0.173088,-0.121498 -1.730904,-0.121498c-1.903992,0 -2.682899,0.05455 -1.730904,0.121498m29.994934,-0.004957c0.585236,0.072733 1.623779,0.074387 2.307877,0.002478c0.684143,-0.071907 0.205231,-0.131416 -1.064087,-0.13307c-1.269333,-0.001652 -1.828995,0.05703 -1.24379,0.130592m9.231491,0c0.585205,0.072733 1.623779,0.074387 2.307877,0.002478c0.684143,-0.071907 0.205261,-0.131416 -1.064087,-0.13307c-1.269333,-0.001652 -1.828964,0.05703 -1.24379,0.130592m18.677322,17.283401c0,2.091103 0.053574,2.946552 0.119492,1.901001c0.065125,-1.045551 0.065125,-2.756451 0,-3.802002c-0.065918,-1.045547 -0.119492,-0.190098 -0.119492,1.901001m-54.194664,-0.165302c0,0.454586 0.127747,0.826519 0.284348,0.826519c0.155807,0 0.212677,-0.371933 0.126106,-0.826519c-0.08654,-0.45459 -0.214287,-0.826523 -0.284348,-0.826523c-0.069229,0 -0.126106,0.371933 -0.126106,0.826523m10.297241,2.479565c0,0.636421 0.067596,0.896774 0.150841,0.578568c0.08242,-0.318211 0.08242,-0.838921 0,-1.157135c-0.083244,-0.318207 -0.150841,-0.057854 -0.150841,0.578568m-51.591713,27.02314c0.951996,0.066948 2.509804,0.066948 3.461807,0c0.951996,-0.066948 0.173111,-0.121498 -1.730904,-0.121498c-1.903999,0 -2.682907,0.05455 -1.730904,0.121498m97.771454,9.343834c0,1.000092 0.061798,1.409218 0.13765,0.909172c0.074997,-0.500046 0.074997,-1.318298 0,-1.818352c-0.075851,-0.500038 -0.13765,-0.090912 -0.13765,0.90918m-16.501312,0.901733c0.680008,0.071907 1.792725,0.071907 2.472733,0c0.680008,-0.071075 0.123611,-0.129761 -1.236359,-0.129761c-1.359985,0 -1.916351,0.058685 -1.236374,0.129761m14.220657,23.39801c0,2.182022 0.053558,3.031685 0.118652,1.887779c0.064301,-1.143082 0.063477,-2.92836 -0.001633,-3.967308c-0.065109,-1.038109 -0.117844,-0.102486 -0.11702,2.079529m-54.196327,-0.145462c0,0.556252 0.128571,0.931488 0.285179,0.833961c0.266228,-0.164482 0.121178,-1.845619 -0.159073,-1.845619c-0.069229,0 -0.126106,0.455406 -0.126106,1.011658m10.204102,2.385345c0.160736,1.362106 0.167328,1.369545 0.279419,0.280182c0.063469,-0.614105 -0.010719,-1.242256 -0.164032,-1.395988c-0.154114,-0.154556 -0.205231,0.347969 -0.115387,1.115807m-38.811043,35.284225c0,0.636414 0.067596,0.896774 0.150848,0.578568c0.082413,-0.318222 0.082413,-0.838913 0,-1.157135c-0.083252,-0.318207 -0.150848,-0.057846 -0.150848,0.578568" id="path0"/>
   <path fill-rule="evenodd" fill="#1c1c1c" d="m146.722473,14.365688c-0.099731,0.259529 -0.115402,0.817432 -0.034622,1.239784c0.112946,0.592617 0.155792,0.525667 0.191223,-0.291763l0.044495,-1.060428l2.390305,-0.114059l2.390289,-0.11406l-2.401016,-0.066122c-1.819916,-0.04959 -2.443878,0.048765 -2.580673,0.406649m-39.565208,3.825972c0,2.272936 0.05275,3.202772 0.11702,2.066305c0.064301,-1.136469 0.064301,-2.996143 0,-4.13261c-0.06427,-1.136469 -0.11702,-0.206631 -0.11702,2.066305m9.125168,-0.347139c-0.014015,0.782717 0.085716,1.033979 0.318977,0.800074c0.225006,-0.225639 0.23243,-0.6108 0.021439,-1.1406c-0.300049,-0.752136 -0.320633,-0.731472 -0.340416,0.340527m64.380623,2.000183c0,1.363762 0.058533,1.921665 0.129395,1.239782c0.071732,-0.681879 0.071732,-1.797684 0,-2.479567c-0.070862,-0.681879 -0.129395,-0.123978 -0.129395,1.239784m-33.9505,3.636698c0,1.727432 0.056076,2.434109 0.123672,1.570393c0.067596,-0.863716 0.067596,-2.277069 0,-3.140785c-0.067596,-0.863716 -0.123672,-0.157038 -0.123672,1.570393m-8.070938,18.772795c-0.107986,0.656261 -0.060181,0.965382 0.122803,0.781895c0.166504,-0.166958 0.247284,-0.654606 0.179688,-1.085224c-0.103867,-0.662048 -0.150009,-0.614937 -0.30249,0.303329m-127.12844,21.475525c1.049262,0.066116 2.681252,0.065292 3.626655,-0.001656c0.945404,-0.066116 0.086546,-0.119843 -1.908108,-0.119011c-1.994666,0.000824 -2.76781,0.05455 -1.718547,0.120667m169.122672,11.822571c0.003296,0.727341 0.070892,0.986038 0.150009,0.574432c0.079132,-0.410774 0.075821,-1.005875 -0.006561,-1.322433c-0.082443,-0.315727 -0.147568,0.02066 -0.143448,0.748001m-123.636944,1.715866c0.317341,0.082649 0.836597,0.082649 1.153938,0c0.317329,-0.083481 0.057693,-0.151253 -0.576965,-0.151253c-0.634666,0 -0.894302,0.067772 -0.576973,0.151253m89.678219,0.929008c0.003296,0.727341 0.070892,0.986038 0.150009,0.574432c0.079147,-0.410782 0.075851,-1.005882 -0.006592,-1.322433c-0.082413,-0.315735 -0.147522,0.02066 -0.143417,0.748001m-39.519859,3.140778c0,2.272942 0.05275,3.202774 0.11702,2.066307c0.064301,-1.136467 0.064301,-2.99614 0,-4.132607c-0.06427,-1.136475 -0.11702,-0.206635 -0.11702,2.066299m9.109512,-0.413261c-0.002487,0.590973 0.051918,1.074486 0.121147,1.074486c0.300026,0 0.427795,-1.288551 0.168159,-1.699333c-0.192871,-0.305817 -0.286034,-0.105789 -0.289307,0.624847m64.398766,1.901009c0.001633,1.454681 0.059341,2.008446 0.128555,1.23069c0.070084,-0.776932 0.069244,-1.967125 -0.001648,-2.644867c-0.070862,-0.676926 -0.127731,-0.040504 -0.126907,1.414177m-33.95462,3.636696c-0.000824,1.636513 0.054413,2.347321 0.123642,1.580307c0.06926,-0.767006 0.070053,-2.105972 0.002472,-2.975479c-0.068405,-0.869499 -0.12529,-0.241341 -0.126114,1.395172m-33.993324,19.585266c1.042641,0.0653 2.748833,0.0653 3.791504,0c1.042671,-0.066124 0.189575,-0.11985 -1.895767,-0.11985c-2.085312,0 -2.938408,0.053726 -1.895737,0.11985" id="path1"/>
   <path fill-rule="evenodd" fill="#4f4f4f" d="m102.414566,18.152813l0,8.304068l3.967087,0c7.161812,0 9.715332,-2.222517 9.715332,-8.456146c0,-5.865003 -2.27491,-7.795757 -9.449928,-8.020572l-4.232491,-0.132243l0,8.304893m39.783646,-8.005692c-0.12117,0.120672 -0.220062,0.932317 -0.220062,1.803471l0,1.583616l-2.35817,0.096704l-2.35733,0.097529l-0.992386,3.388741c-1.172897,4.005325 -1.274277,4.063183 -2.020203,1.157129c-0.315689,-1.227383 -0.765732,-2.752317 -1.000626,-3.388741l-0.426956,-1.15713l-2.345779,-0.097529c-2.917824,-0.120672 -3.115654,-1.567086 1.456421,10.677013l0.740173,1.983652l2.410873,0l2.410919,0l0.802811,-2.148956c0.441803,-1.181929 1.442429,-3.785473 2.224625,-5.785656l1.42099,-3.636697l0.017319,5.868308l0.017319,5.868305l2.307846,0l2.307877,0l0,-2.975479l0,-2.975479l2.472748,0l2.472717,0l0,-1.968777l0,-1.969603l-2.390305,-0.096703l-2.39032,-0.097528l0,-1.157131l0,-1.157131l2.555161,-0.096704l2.555161,-0.096703l0,-1.969603l0,-1.969602l-4.725388,0c-2.599655,0 -4.825104,0.099182 -4.945435,0.220681m-89.073242,0.824042c-3.244198,1.684452 -4.279457,3.568096 -4.240726,7.71641c0.065128,6.980806 4.140175,9.659567 12.153442,7.989164l1.978172,-0.412436l0,-4.614473l0,-4.615299l-3.626656,0l-3.626656,0l-0.098915,1.901001l-0.0989,1.901001l1.520729,0c1.51741,0 1.520718,0.00248 1.41769,1.074478c-0.279415,2.911013 -4.543217,0.721554 -4.806969,-2.467995c-0.364326,-4.40123 1.86607,-5.938561 6.846958,-4.720267c0.746769,0.182661 0.891006,0.036366 1.535568,-1.553036l0.712139,-1.755532l-1.206684,-0.55377c-1.847134,-0.848838 -6.734871,-0.785196 -8.459194,0.110754m11.536072,-0.32813c-0.095596,0.24961 -0.134338,4.02103 -0.084892,8.381763l0.088188,7.927998l3.798103,-0.023142c6.101875,-0.038019 8.596008,-1.592709 9.740898,-6.07411c1.105278,-4.328499 -0.201126,-7.746993 -3.648109,-9.547157c-1.99054,-1.038939 -9.556244,-1.548076 -9.894188,-0.665351m18.795982,0.32813c-2.734818,1.419965 -4.000023,3.316833 -4.331383,6.493158c-0.763229,7.325466 4.084129,10.986959 12.244118,9.248783l1.97818,-0.421528l0,-4.628523l0,-4.628525l-3.626671,0l-3.626663,0l0,1.81835l0,1.818348l1.420982,0.102488c1.380623,0.10001 1.417694,0.132244 1.318787,1.157131c-0.246422,2.546516 -4.319023,0.859585 -4.741859,-1.963816c-0.702232,-4.698778 1.668266,-6.522913 6.810715,-5.238497c0.784676,0.196712 0.905014,0.074388 1.531441,-1.550556l0.679977,-1.763798l-1.201714,-0.570301c-1.811684,-0.858756 -6.698608,-0.785195 -8.45591,0.127285m93.534035,1.377812c-0.566254,1.571218 -1.881714,2.75232 -2.496613,2.240701c-1.333649,-1.110846 -6.044159,-1.435668 -7.778381,-0.536412c-3.40657,1.767104 -2.562546,5.693084 1.630341,7.580035c2.581543,1.161263 1.672394,2.239048 -1.042633,1.235649c-0.41954,-0.155386 -1.17128,-0.381853 -1.669907,-0.502525l-0.906677,-0.219854l0,1.983654c0,2.369637 0.226669,2.496923 4.450897,2.483698c6.810699,-0.019836 8.014908,-6.167507 1.68309,-8.591698c-0.834946,-0.319864 -1.518219,-0.709982 -1.518219,-0.867022c0,-0.438885 1.541321,-0.339699 2.778503,0.178528c1.151428,0.482691 1.837204,0.222336 1.837204,-0.69593c0,-0.236385 0.148392,-0.42979 0.329712,-0.42979c0.181351,0 0.329697,0.314903 0.329697,0.700062c0,0.536415 0.15332,0.659567 0.659393,0.526497c0.628067,-0.164478 0.659393,-0.00992 0.659393,3.218475c0,5.431078 1.93367,7.107264 6.676346,5.786482c1.236359,-0.343832 1.236359,-0.34466 1.236359,-2.151436l0,-1.805952l-1.352585,0.216549c-1.718521,0.275232 -1.932831,-0.047112 -1.939423,-2.918449l-0.004959,-2.213425l1.566071,-0.100836c2.671371,-0.171917 2.587265,-3.902839 -0.089005,-3.902839c-1.467972,0 -1.477066,-0.006612 -1.477066,-1.157131l0,-1.157131l-1.58252,0c-1.493546,0 -1.603989,0.06199 -1.979019,1.100101m-55.900826,1.283589c-2.767815,0.577738 -4.07341,2.277067 -4.394051,5.719532c-0.474754,5.093857 2.411743,7.78088 7.874001,7.328772c3.211227,-0.265314 3.560707,-0.530626 3.560707,-2.700247l0,-1.792727l-1.359985,0.481863c-2.405975,0.851316 -5.233955,0.485168 -5.233955,-0.676922c0,-0.376894 0.753365,-0.492609 3.709084,-0.566996c4.272873,-0.107447 4.300919,-0.134724 3.553314,-3.486269c-0.789627,-3.542475 -3.668694,-5.150887 -7.709114,-4.307007m35.306343,-0.010745c-5.042694,1.071172 -6.260086,9.148772 -1.821564,12.092845c1.551208,1.029018 6.572464,1.322435 8.091583,0.472771c1.252823,-0.700891 1.10611,-3.863991 -0.164871,-3.554045c-2.469406,0.60088 -4.384125,0.605839 -5.038589,0.012396c-1.112701,-1.01001 -0.755005,-1.148039 2.977997,-1.148039l3.626633,0l0,-2.265495c0,-4.307834 -3.106537,-6.579944 -7.671188,-5.610433m-83.878036,1.559648c1.782013,1.770409 1.225647,6.562584 -0.845673,7.286619c-2.541145,0.88851 -2.557625,0.862888 -2.557625,-3.98797l0,-4.340068l1.401207,0.221509c0.770676,0.122324 1.671562,0.490953 2.00209,0.81991m38.004929,-0.261183c1.95015,2.16053 0.540688,7.113876 -2.125732,7.472588l-1.367409,0.183487l0,-4.175589l0,-4.176416l1.43251,0c1.037743,0 1.605629,0.191753 2.060631,0.69593m13.585121,2.345671c0.697319,0.699238 0.431091,0.925705 -1.08799,0.925705c-1.540497,0 -1.901527,-0.384333 -0.906677,-0.965378c0.778076,-0.454588 1.516617,-0.439711 1.994667,0.039673m35.277519,0c0.698151,0.700066 0.430252,0.925705 -1.099518,0.925705c-1.39299,0 -1.471298,-0.045458 -1.142426,-0.661219c0.391525,-0.733124 1.628693,-0.879417 2.241943,-0.264486m-106.747429,15.203047c-2.612034,1.779503 -3.720638,5.376526 -1.593262,5.166592c0.862972,-0.084305 1.099533,-0.286804 1.313831,-1.122417c0.831669,-3.242447 5.876011,-2.924236 5.876011,0.371109c0,1.272018 -0.440952,1.87207 -5.011375,6.807236c-4.544868,4.907887 -4.689922,4.585545 2.064713,4.585545l5.626282,0l-0.103859,-1.074478l-0.103031,-1.074482l-3.04969,-0.095047c-3.624191,-0.113235 -3.57061,0.033062 -0.976723,-2.688679c1.139923,-1.196804 2.37711,-2.606026 2.750496,-3.132515l0.677513,-0.956287l0.201126,2.397739c0.481346,5.765816 4.661083,8.775185 8.527607,6.140236c3.477455,-2.36964 3.961296,-10.874554 0.81517,-14.34264c-2.425758,-2.674625 -6.41095,-2.096062 -8.214394,1.192673l-0.816002,1.48774l-0.396461,-1.204247c-0.911606,-2.7705 -5.125946,-4.135916 -7.587952,-2.458076m33.833435,3.524292c-3.906914,5.752594 -4.470703,7.879234 -2.813965,10.611713c1.819107,2.998627 7.400024,2.530811 8.882843,-0.743866c1.453957,-3.21104 -0.601685,-7.165947 -3.726395,-7.170906c-0.498665,0 -0.906677,-0.085957 -0.906677,-0.190929c0,-0.353748 3.022514,-4.931854 3.50882,-5.314537c0.441788,-0.347137 -0.958588,-1.438145 -1.846313,-1.438145c-0.118683,0 -1.512466,1.910919 -3.098312,4.24667m-12.464165,-2.95895c-0.652,1.162918 -0.518471,1.357151 0.932213,1.357151l1.098717,0l0,6.942783l0,6.942787l1.159691,0l1.159714,0l-0.088203,-8.017265l-0.088181,-8.017265l-1.813347,-0.091743c-1.705338,-0.086784 -1.845459,-0.033886 -2.360603,0.883553m25.867142,0.021492c-3.397537,2.077049 -2.607079,5.95013 1.658371,8.122231c2.986229,1.521626 3.188988,1.697678 3.188988,2.775463c0,1.702633 -2.710106,2.272106 -5.709518,1.19928c-1.429214,-0.510792 -1.674026,-0.2868 -1.486092,1.360458c0.304131,2.663879 8.225922,2.246487 9.64608,-0.508312c1.416885,-2.745705 0.287643,-5.212048 -3.082664,-6.733673c-5.104523,-2.305172 -3.73629,-5.867481 1.488586,-3.875565c1.048431,0.399208 1.365768,0.169437 1.636131,-1.186886c0.354408,-1.774544 -4.957817,-2.609329 -7.339882,-1.152996m-32.008553,1.897694c2.792519,2.523369 1.364914,11.361374 -1.830658,11.329136c-2.265015,-0.022316 -3.18486,-1.758011 -3.184029,-6.006332c0.000816,-5.208744 2.364731,-7.718067 5.014687,-5.322803m42.918198,1.720818c-3.764297,2.301865 -3.738754,8.698318 0.043686,10.846451c2.708473,1.538158 7.081886,0.85297 7.081886,-1.109192l0,-1.139774l-1.236374,0.262833c-2.506516,0.533108 -4.046181,0.32069 -4.900108,-0.674438c-1.463013,-1.705944 -1.195145,-1.872902 3.004372,-1.872902l3.791504,0l-0.000832,-1.570393c-0.000809,-4.225182 -4.323128,-6.858479 -7.784134,-4.742584m11.081932,-0.390945c-0.272011,0.102489 -0.822594,0.308292 -1.224014,0.457069c-1.177002,0.436401 -0.379951,2.428322 0.854736,2.134079c3.196404,-0.762054 4.13192,-0.576912 4.500374,0.892643c0.223343,0.894299 0.206055,0.905869 -1.375664,0.90752c-5.038597,0.005787 -7.795685,3.997063 -4.701477,6.80476c1.375664,1.248871 6.218071,0.736427 6.237045,-0.659565c0.002464,-0.198368 0.192039,0.010742 0.422005,0.465332c0.303322,0.602531 0.682472,0.826519 1.396248,0.826519l0.979202,0l0.092331,-4.059048c0.114548,-4.993019 -0.213486,-6.400589 -1.703728,-7.323814c-1.083031,-0.671135 -4.206085,-0.924877 -5.477058,-0.445496m9.665054,0.405823c-3.00354,1.836533 -2.122437,4.677288 1.994644,6.431995c4.064346,1.732391 2.086136,3.897049 -2.168564,2.374596c-1.440765,-0.515747 -1.57843,-0.42979 -1.57843,0.986042c0,2.47213 6.670578,2.528336 8.387482,0.070255c1.466309,-2.099365 0.44426,-4.025162 -3.029938,-5.705482c-3.376892,-1.634033 -2.886459,-3.107723 0.729492,-2.194416c1.888336,0.476078 1.730072,0.519882 2.325989,-0.634769l0.516785,-1.003395l-1.157227,-0.484344c-1.688049,-0.7075 -4.735275,-0.626503 -6.020233,0.159519m9.982361,0.140507c-3.374435,2.04895 -3.425537,8.108185 -0.089005,10.589401c2.486725,1.849762 7.292038,0.428143 8.334732,-2.465511c2.140518,-5.94104 -3.189819,-11.192764 -8.245728,-8.12389m9.841461,-0.359535c-0.089035,0.23391 -0.121994,2.949032 -0.071716,6.033611l0.090637,5.607952l1.318802,0l1.318787,0l0.164825,-4.204517c0.18631,-4.740932 0.422836,-5.257507 2.43399,-5.315365c1.847122,-0.052071 1.998795,0.306641 2.181778,5.154194l0.164856,4.365688l1.401184,0.101665l1.40123,0.101658l0,-4.664063c0,-5.187252 -0.290131,-6.235283 -1.967468,-7.104782c-1.339386,-0.695107 -3.585434,-0.631466 -4.841568,0.136375c-1.025375,0.627331 -1.041855,0.627331 -1.205887,-0.001656c-0.19371,-0.743042 -2.119949,-0.913307 -2.38945,-0.210762m-36.355637,2.43576c1.336105,1.213337 0.801979,1.767105 -1.70536,1.767105c-2.505684,0 -2.653229,-0.131416 -1.62458,-1.443108c0.801987,-1.022408 2.389496,-1.176968 3.329941,-0.323997m31.38295,0.428139c1.47789,1.453854 0.825912,5.623657 -0.987427,6.315456c-2.519699,0.960419 -4.351166,-2.469646 -3.092529,-5.790615c0.585205,-1.543941 2.759537,-1.823307 4.079956,-0.524841m-56.625328,2.444027c1.861137,1.604279 0.586868,4.515289 -1.975716,4.515289c-1.400375,0 -2.621063,-1.255489 -2.621063,-2.694462c0,-1.296814 1.374001,-2.59528 2.747169,-2.59528c0.523399,0 1.355888,0.348793 1.849609,0.774452m36.230339,1.953072c-0.515968,2.546513 -4.121201,3.174671 -4.121201,0.718246c0,-1.154652 0.921501,-1.627422 3.405739,-1.748093c0.882767,-0.042152 0.920692,0.013226 0.715462,1.029846m-72.173836,29.86142c-6.504906,2.390297 -6.975544,13.22187 -0.689064,15.870049c1.604809,0.67527 6.203243,0.705025 8.407249,0.05455l1.483639,-0.438057l0.091503,-4.531822l0.092308,-4.531822l-3.801395,0l-3.800575,0l0,1.811737c0,1.93737 0.631371,2.499405 2.312813,2.058044c0.558014,-0.146294 0.654461,-0.004959 0.654461,0.954628c0,2.229134 -3.703312,1.382774 -4.628933,-1.057121c-1.770489,-4.67067 1.957569,-7.980896 6.68211,-5.93277c0.700615,0.303329 2.355682,-3.014328 1.83559,-3.67968c-0.811066,-1.038109 -6.373852,-1.410049 -8.639706,-0.577736m30.385635,-0.018188c-3.878853,1.428238 -5.566902,4.652496 -5.036934,9.61824c0.600052,5.618698 5.954323,8.282578 12.701553,6.317932l1.48365,-0.431442l0.091476,-4.531822l0.092331,-4.531822l-3.817902,0l-3.817047,0l0.0989,1.901009l0.098907,1.900993l1.401207,0.101662c2.120796,0.15374 2.176834,2.047302 0.060997,2.047302c-2.423264,0 -3.605225,-1.410049 -3.605225,-4.3004c0,-3.906967 2.923584,-5.492233 7.008522,-3.80117c0.719566,0.297546 2.372154,-3.030029 1.835594,-3.694557c-0.828384,-1.027367 -6.381294,-1.411697 -8.596031,-0.595924m18.214897,7.808151l0,8.30986l4.038788,-0.178528c7.096703,-0.314079 9.783752,-2.626686 9.801041,-8.434662c0.01815,-5.871613 -2.530418,-7.986679 -9.636185,-7.999077l-4.203644,-0.007446l0,8.309853m39.563583,-6.491501l0,1.818352l-2.390305,0.001648l-2.390289,0.000824l-0.946243,3.310226c-1.050095,3.671417 -1.367401,4.149963 -1.694641,2.55809c-0.121979,-0.591797 -0.528351,-2.155571 -0.901733,-3.473877l-0.679977,-2.396912l-2.42244,0c-2.597183,0 -2.672203,0.066124 -1.946045,1.724121c0.2621,0.597572 1.252853,3.168884 2.202377,5.714577c2.14386,5.747635 1.907303,5.45504 4.417099,5.45504l2.068024,0l1.224823,-3.223427c0.673386,-1.772896 1.722672,-4.488014 2.330963,-6.033615l1.106934,-2.810173l0.09314,5.950958l0.09317,5.950958l2.225433,0.097527l2.225433,0.098358l0,-3.156487l0,-3.155663l2.489197,0l2.489227,0l-0.098923,-1.901001l-0.098907,-1.901001l-2.390289,-0.097527l-2.390305,-0.096703l0,-1.129028l0,-1.128212l2.555161,-0.096695l2.55513,-0.096703l0.098938,-1.901001l0.098892,-1.901009l-4.961929,0l-4.961914,0l0,1.818352m-77.478653,6.752686l0,8.290016l3.401642,0c7.586304,0 11.346504,-3.377167 10.643425,-9.558723c-0.581078,-5.11039 -2.84034,-6.757645 -9.484535,-6.913864l-4.560532,-0.107445l0,8.290016m112.560791,-6.276611c-0.754166,1.889435 -1.810013,2.508499 -3.11972,1.828278c-3.883041,-2.012589 -8.835052,-0.558731 -9.104584,2.67379c-0.191238,2.283684 0.34288,3.092026 2.930984,4.444214c1.219055,0.636421 2.319427,1.268707 2.445541,1.405083c0.407181,0.440536 -2.721634,0.26284 -4.125336,-0.233078l-1.359985,-0.481857l0,1.977867c0,2.400215 0.356873,2.621719 4.229996,2.621719c6.651627,0 8.315781,-5.477356 2.532883,-8.33712c-2.999405,-1.48278 -2.074615,-2.258064 1.011368,-0.848015c0.641251,0.293419 0.946213,0.30912 1.031097,0.053726c0.298386,-0.89843 1.11026,-1.66214 1.012161,-0.952156c-0.065079,0.469467 0.123672,0.691795 0.65033,0.767014c0.709702,0.100838 0.741837,0.241348 0.741837,3.239967c0,4.659103 0.968491,6.076584 4.153366,6.076584c3.507111,0 3.759338,-0.153725 3.759338,-2.293594l0,-1.880333l-1.566055,0.02066l-1.56604,0.02066l-0.096436,-2.562218l-0.096466,-2.562218l1.491882,0c2.673035,0 2.770294,-3.400314 0.102219,-3.572227l-1.566071,-0.100838l0,-1.304253l0,-1.304253l-1.486084,0c-1.422653,0 -1.509216,0.056206 -2.006226,1.302597m-56.677269,1.356323c-4.82428,1.583618 -5.143257,9.911659 -0.471451,12.300308c1.313828,0.671959 5.51664,0.798416 7.180779,0.216545c1.390488,-0.486 1.679794,-4.195427 0.29673,-3.800346c-3.732994,1.065392 -5.511681,0.896774 -5.789467,-0.550461c-0.100563,-0.51989 0.247284,-0.576088 3.549988,-0.576088c4.257217,0 4.268753,-0.009094 3.713226,-3.007713c-0.726166,-3.913582 -4.42617,-5.912941 -8.479805,-4.582245m35.228874,0.016533c-4.775635,1.386909 -4.939667,10.436493 -0.225006,12.41188c1.273438,0.533936 5.035294,0.590973 6.785141,0.103317l1.236374,-0.344658l0,-1.84066c0,-1.751404 -0.036285,-1.831581 -0.741806,-1.631554c-3.62587,1.025711 -5.117752,0.911644 -5.843887,-0.447975c-0.354431,-0.663704 -0.288467,-0.676926 3.442032,-0.676926l3.803024,0l0,-2.192764c0,-4.516121 -3.582947,-6.796486 -8.455872,-5.380661m-45.284592,0.949677c2.293839,1.767105 0.731087,7.61557 -2.035889,7.61557l-1.261086,0l0,-4.132607l0,-4.132614l1.236374,0.007446c0.703888,0.004128 1.591606,0.281013 2.0606,0.642204m-37.777435,0.50914c2.231201,2.414268 1.045944,6.980804 -1.929558,7.433739l-1.505066,0.228943l0,-4.245018l0,-4.245842l1.334442,0c1.000641,0 1.525673,0.207458 2.100182,0.828178m51.698853,2.274582c0.257973,0.398392 -0.886063,0.65461 -2.118309,0.473595c-0.689064,-0.10083 -0.694,-0.128105 -0.126106,-0.695099c0.614876,-0.613281 1.777885,-0.498398 2.244415,0.221504m34.895035,-0.44632c1.066574,0.571953 0.718765,0.980255 -0.834946,0.980255c-1.495178,0 -1.87677,-0.750481 -0.559631,-1.100098c0.301651,-0.080177 0.595901,-0.162827 0.652771,-0.184319c0.057709,-0.02066 0.391525,0.115715 0.741806,0.304161m-122.92149,13.874001c0,0.636421 0.067581,0.896774 0.150845,0.578568c0.082417,-0.318214 0.082417,-0.838921 0,-1.157135c-0.083263,-0.318207 -0.150845,-0.057854 -0.150845,0.578568m17.042011,1.413353c-2.668064,1.802643 -3.620064,5.198822 -1.45808,5.198822c0.94622,0 1.153927,-0.123146 1.153927,-0.682709c0,-2.550644 3.227726,-3.718521 5.192722,-1.880333c1.721012,1.610893 1.20504,2.644867 -4.269566,8.556984c-4.544868,4.907883 -4.689934,4.585541 2.064728,4.585541l5.626266,0l-0.103859,-1.074478l-0.103031,-1.074471l-3.258228,-0.095055l-3.258213,-0.095055l2.282322,-2.384514c1.25531,-1.311691 2.605415,-2.830841 3.000229,-3.376343l0.718735,-0.991829l0.014019,1.322441c0.069229,6.333633 4.517666,10.088524 8.631435,7.285797c3.929993,-2.67794 3.891266,-12.479668 -0.059334,-15.224548c-2.931816,-2.0382 -7.804733,0.227295 -7.928375,3.685463c-0.011536,0.339706 -0.222538,-0.028099 -0.467339,-0.814949c-1.059971,-3.405273 -4.927315,-4.868217 -7.778358,-2.940765m34.933784,1.975388c-0.974243,1.500137 -2.25264,3.369736 -2.841141,4.154099c-4.256393,5.674904 -0.089012,12.373863 5.847977,9.40004c4.062691,-2.034904 2.710106,-9.331436 -1.730904,-9.338051c-1.2108,-0.001648 -1.171242,-0.159515 0.741814,-2.944069c1.827362,-2.659752 1.902359,-2.906876 1.071533,-3.539162c-0.98333,-0.74884 -1.264404,-0.542206 -3.089279,2.267143m-13.425224,-1.554688c-0.581078,1.280281 -0.480537,1.472038 0.771484,1.472038l1.153954,0l0,6.942787l0,6.94278l1.153931,0l1.153946,0l0,-8.099915l0,-8.099915l-1.92543,0c-1.743286,0 -1.960869,0.079346 -2.307884,0.842224m25.399811,0.097527c-3.883003,2.076225 -3.058769,6.068329 1.750687,8.482597c2.53289,1.272018 2.634277,1.366241 2.634277,2.46965c0,1.9506 -3.062874,2.551468 -5.810074,1.141426c-1.073174,-0.550461 -1.278397,-0.357063 -1.278397,1.205902c0,2.849014 7.811333,2.778763 9.552933,-0.085968c1.719383,-2.828354 0.64621,-5.072365 -3.380196,-7.068413c-4.931435,-2.443199 -3.122215,-5.312057 2.278214,-3.612724c0.855537,0.26944 2.011124,-1.55304 1.325356,-2.087799c-1.44902,-1.12986 -5.333664,-1.374504 -7.0728,-0.444672m-31.316208,2.433281c2.579041,2.989532 1.171242,10.466248 -2.03093,10.783638c-2.205673,0.219025 -3.315094,-1.832397 -3.314274,-6.128662c0.000828,-5.405449 2.682079,-7.741211 5.345203,-4.654976m42.466522,0.945541c-4.154167,1.753059 -4.558029,8.483429 -0.669258,11.13739c1.204208,0.822388 5.364967,1.074486 6.618652,0.401688c0.881912,-0.472763 0.938782,-2.820915 0.060974,-2.479568c-2.404312,0.933975 -5.144089,0.557907 -5.846336,-0.803383c-0.838249,-1.624939 -0.759933,-1.664604 3.291206,-1.664604l3.791504,0l-0.000832,-1.570396c-0.000809,-3.888786 -3.759369,-6.493156 -7.245911,-5.021126m10.696999,-0.042976c-1.919647,0.461205 -2.133934,0.714119 -1.626213,1.921661c0.389862,0.928185 0.552238,1.034805 1.20916,0.790161c1.957573,-0.728996 3.189796,-0.747177 3.878052,-0.05703c1.073174,1.076134 0.86628,1.665436 -0.586868,1.665436c-4.979225,0 -7.859955,3.801178 -5.031143,6.63781c1.22892,1.232338 4.110481,1.390198 5.624603,0.309113l0.919838,-0.657089l0.177238,0.680229c0.14257,0.543854 0.396439,0.658737 1.274246,0.57444l1.096252,-0.105797l0.092331,-4.202866c0.151642,-6.926254 -1.638596,-8.851227 -7.027496,-7.556068m9.862045,0.144638c-3.531036,1.616684 -2.741409,4.717789 1.732559,6.806412c4.172287,1.947289 1.780365,3.603638 -3.093369,2.143173c-1.193512,-0.35788 -1.093781,2.051422 0.103851,2.507668c2.529587,0.964554 6.947525,0.08596 7.681107,-1.527405c1.099518,-2.420067 0.332993,-3.82515 -2.954086,-5.417038c-3.587112,-1.737343 -3.165085,-3.206902 0.633026,-2.20681c1.838058,0.484337 2.366379,0.129761 2.366379,-1.587746c0,-0.9786 -4.749283,-1.50592 -6.469467,-0.718254m10.261002,0.014053c-3.690964,1.644783 -4.356155,7.605667 -1.183624,10.598488c1.472076,1.387733 4.890213,1.622475 6.593079,0.452118c5.991425,-4.119392 1.164658,-13.980629 -5.409454,-11.050606m12.928192,0.158691c-0.966812,0.494263 -1.224014,0.528976 -1.224014,0.165306c0,-0.316559 -0.412109,-0.460373 -1.318787,-0.460373l-1.318756,0l0,5.950958l0,5.950958l1.483627,0l1.483612,0l0,-3.615204c0,-5.059967 0.406387,-5.957573 2.700226,-5.967491c1.650146,-0.006615 1.726791,0.198364 1.915543,5.119484l0.164856,4.297913l1.401184,0.101662l1.40123,0.101662l0,-4.66407c0,-6.989067 -2.194138,-9.279358 -6.688721,-6.980804m-39.880882,2.596107c0.869553,1.141426 0.513504,1.406738 -1.885048,1.406738c-2.242752,0 -2.290565,-0.017357 -2.02597,-0.743866c0.554703,-1.522453 2.947464,-1.927452 3.911018,-0.662872m31.235435,0.081001c1.463013,1.620811 0.77478,6.036911 -1.010513,6.485718c-2.638412,0.66452 -4.561371,-3.06144 -3.057953,-5.925339c0.747574,-1.424095 3.008484,-1.735695 4.068466,-0.560379m-55.882721,2.480392c1.079765,1.152168 1.027023,2.696945 -0.126099,3.691254c-1.790245,1.544762 -4.596786,0.402512 -4.596786,-1.87043c0,-2.325829 3.122215,-3.529243 4.722885,-1.820824m35.485237,1.903473c-0.421204,2.185326 -3.875587,3.235016 -4.082474,1.239784c-0.151672,-1.468727 0.417877,-1.792725 4.000854,-2.275414c0.159073,-0.021484 0.195343,0.444672 0.081619,1.035629" id="path2"/>
   <path fill-rule="evenodd" fill="#db0d00" d="m9.848207,1.74387c0.590163,0.907521 8.113012,13.397924 16.331507,27.114885c4.663561,7.784185 6.191704,10.091009 6.509029,9.826521c0.658577,-0.547985 3.089268,-4.916981 3.498905,-6.289005c0.665985,-2.228304 -0.737698,-5.262468 -7.105778,-15.361742c-0.573679,-0.909174 -2.659822,-4.377261 -4.636358,-7.706491c-2.081211,-3.50528 -4.12203,-6.531178 -4.849825,-7.190743l-1.25532,-1.137294l-4.487993,0l-4.487992,0l0.483825,0.74387m0.062651,125.440441c0.171429,0.447159 18.955053,31.871506 21.884415,36.611618l0.800335,1.294342l1.139103,-1.790253c3.889587,-6.10965 3.850845,-6.536133 -1.355881,-15.179077c-2.136425,-3.545776 -5.522408,-9.199203 -7.524485,-12.563141c-5.299879,-8.904945 -5.327902,-8.926437 -11.368762,-8.926437c-3.404114,0 -3.76513,0.055374 -3.574725,0.552948" id="path3"/>
   <path fill-rule="evenodd" fill="#f9c908" d="m16.126444,50.006149l-6.619472,10.999355l3.915974,0.092571c5.627915,0.133896 6.18262,-0.215725 9.604047,-6.04353c0.641262,-1.091007 1.676508,-2.823399 2.302105,-3.849941c2.025984,-3.323444 1.120142,-7.900726 -2.363094,-11.943245c-0.121161,-0.140507 -3.198887,4.694649 -6.83956,10.744789m0.181345,125.808228l-6.485125,10.822495l4.092348,0.092575c5.639454,0.127274 6.045805,-0.132248 9.371616,-5.995605c0.737698,-1.299286 1.749866,-3.031677 2.251005,-3.84993c0.888529,-1.452209 1.186077,-2.733322 1.127565,-4.844254c-0.026373,-0.929001 -3.249168,-7.066757 -3.70414,-7.052704c-0.092321,0.003296 -3.086786,4.875641 -6.653271,10.827423" id="path4"/>
   <path fill-rule="evenodd" fill="#009c51" d="m16.904533,30.472126c0.170624,1.764622 0.159903,1.789421 -3.192282,7.390759c-15.207249,25.413902 -14.477793,23.308754 -8.080032,23.306271l3.643138,-0.001652l6.593929,-10.967949c3.626667,-6.032784 6.640083,-11.156395 6.696959,-11.386169c0.075836,-0.307465 -5.025396,-9.210762 -5.72683,-9.994303c-0.057693,-0.064468 -0.028839,0.679399 0.065117,1.653044m-0.007412,124.591595c0.74346,2.153091 0.416243,2.895309 -6.157088,13.949203c-3.493956,5.874924 -6.83542,11.432465 -7.426401,12.350739c-3.14283,4.883911 -2.985406,5.240967 2.370517,5.360809l3.920907,0.08844l6.264232,-10.457977c3.445324,-5.750946 6.443916,-10.791077 6.66316,-11.200211c0.358549,-0.667831 0.097265,-1.238953 -2.59141,-5.664978c-3.236788,-5.327759 -3.474993,-5.674072 -3.043917,-4.426025" id="path5"/>
   <path fill-rule="evenodd" fill="#e6e7e7" d="m54.48415,136.369446c-6.587337,1.900162 -7.799786,12.154007 -1.853714,15.668381c1.702881,1.006699 6.470276,1.236481 9.149063,0.44136l1.401207,-0.416565l0,-4.615311l0,-4.616119l-3.591209,0c-3.902786,0 -3.991798,0.043808 -3.991798,1.983658c0,1.634033 0.29673,1.983643 1.683918,1.983643c1.49847,0 2.007023,1.716705 0.615719,2.081192c-2.296341,0.602539 -3.948124,-1.324097 -3.948124,-4.605392c0,-3.508575 2.544437,-4.844238 6.813187,-3.576355c0.722851,0.214905 1.319607,-0.451279 1.58913,-1.772888c0.06181,-0.306625 0.21595,-0.818253 0.342068,-1.137299c0.534092,-1.351349 -5.078972,-2.320862 -8.209446,-1.418304m29.818546,0.181839c-3.742859,1.364578 -5.108627,3.726791 -4.909164,8.486725c0.27282,6.514633 4.524254,9.225647 11.976227,7.637054l1.97818,-0.421524l0.091476,-4.711166l0.091499,-4.711182l-3.635727,0l-3.635727,0l0,1.983658l0,1.983643l1.318794,0c1.530602,0 2.065529,1.710907 0.651138,2.081192c-2.246048,0.58931 -3.948112,-1.211685 -3.948112,-4.177246c0,-4.187988 1.457253,-5.035172 6.854385,-3.987152c0.596756,0.116547 1.046791,0.081848 1.001442,-0.076035c-0.04615,-0.158691 0.079124,-0.585175 0.277779,-0.948837c1.110245,-2.035721 0.921501,-2.674637 -0.947868,-3.201126c-2.55352,-0.719894 -5.08062,-0.697586 -7.164322,0.061996m18.260223,-0.243011c-0.088181,0.231445 -0.121147,3.913589 -0.072525,8.182571l0.089035,7.762695l4.286041,-0.013229c5.634514,-0.017349 9.383995,-2.288635 9.393883,-5.689758c0.004128,-1.326584 0.520081,-0.786026 0.575317,0.602524c0.132698,3.331711 2.77108,5.437698 6.790916,5.418671c4.220123,-0.019836 5.071556,-0.823196 4.529213,-4.269806c-0.013199,-0.081833 -0.654465,0.039673 -1.425117,0.271927c-1.976517,0.593445 -3.729698,0.481857 -4.613289,-0.294235l-0.744278,-0.654617l3.791504,-0.165298l3.791504,-0.165298l0.101395,-1.786942c0.384903,-6.780792 -8.983414,-8.849579 -11.808098,-2.606857l-0.642052,1.418304l-0.048645,-1.074463c-0.027184,-0.590973 -0.075829,-1.186066 -0.108795,-1.322433c-0.032967,-0.136383 -0.168159,-0.70256 -0.300026,-1.25798c-0.34948,-1.46376 -2.794991,-3.867294 -4.439369,-4.362381c-1.873497,-0.564514 -8.929832,-0.558731 -9.146614,0.006607m39.635292,-0.199188c-0.12117,0.120682 -0.220062,0.938934 -0.220062,1.818359l0,1.597672l-2.318588,0c-1.569351,0 -2.357346,0.133057 -2.438934,0.413254c-0.067596,0.227295 -0.549774,1.930756 -1.072342,3.786301l-0.950363,3.372208l-0.759933,-2.876297c-1.31221,-4.969055 -1.099533,-4.695465 -3.654694,-4.695465c-2.943367,0 -2.949135,0.089249 -0.385742,6.0336c0.372543,0.863724 0.605011,1.570389 0.5168,1.570389c-0.089035,0 0.041199,0.334747 0.288483,0.743866c0.246445,0.409149 0.726151,1.599319 1.064911,2.644867l0.615738,1.901016l2.359756,0l2.360641,0l0.91246,-2.56221c0.861313,-2.417587 1.492676,-4.021042 2.180099,-5.53772c0.164841,-0.363647 0.506073,-1.330688 0.758301,-2.148941c0.4319,-1.401779 0.45993,-1.148056 0.490402,4.380569l0.033005,5.868301l2.472702,0l2.472717,0l0,-2.975479l0,-2.975479l2.307892,0l2.307877,0l0,-1.983658l0,-1.983658l-2.307877,0l-2.307892,0l0,-1.322418l0,-1.322449l2.472748,0l2.472717,0l0,-1.983643l0,-1.983658l-4.725388,0c-2.599655,0 -4.825104,0.099182 -4.945435,0.220673m-77.698715,8.337128l0,8.290848l0.865463,0.217377c6.828835,1.719162 13.370003,-2.437408 13.370003,-8.494171c0,-5.885666 -2.509804,-8.003204 -9.702141,-8.188354l-4.533325,-0.116547l0,8.290848m112.503113,-5.949295c-0.830841,1.82579 -1.346817,2.080353 -3.050522,1.504257c-2.037521,-0.69014 -4.360229,-0.843033 -6.060654,-0.400864c-4.433578,1.153839 -3.805511,6.855179 0.884399,8.036285c1.243805,0.312424 1.772964,1.031494 0.952835,1.293503c-0.592606,0.188446 -2.844437,-0.17688 -4.121201,-0.667831c-0.47641,-0.183487 -0.550583,0.05455 -0.550583,1.773727l0,1.98613l1.675674,0.403336c7.250031,1.743958 11.82045,-5.269089 5.303177,-8.137939c-0.665176,-0.292587 -1.568558,-0.702545 -2.007843,-0.911652l-0.797882,-0.379364l0.735214,-0.108276c0.404709,-0.059509 1.193512,0.052063 1.753998,0.24794c1.700409,0.594284 2.192474,0.45459 2.529602,-0.718231l0.309906,-1.074478l0.029678,1.074478c0.023071,0.843872 0.171432,1.074463 0.689056,1.074463c0.604156,0 0.661041,0.228958 0.684143,2.727524c0.045319,5.104614 1.045929,6.52623 4.590988,6.52623c2.549393,0 3.296967,-0.560379 3.296967,-2.472137l0,-1.781967l-1.401199,0.061981l-1.40123,0.06282l-0.096436,-2.562225l-0.096436,-2.562225l1.497665,0l1.497635,0l0,-1.983643l0,-1.983643l-1.463867,0c-1.453125,0 -1.464645,-0.009094 -1.56604,-1.239792c-0.10054,-1.217468 -0.129395,-1.241425 -1.585815,-1.335663l-1.483658,-0.095871l-0.747574,1.643127m-20.023285,0.841385c-0.18132,0.071091 -0.700623,0.212418 -1.153961,0.314911c-4.054398,0.913315 -5.096268,8.8694 -1.546249,11.800262c1.555344,1.284409 6.600525,1.638168 8.535828,0.599228c0.871246,-0.46698 0.886871,-4.121872 0.016479,-3.767288c-2.541946,1.035629 -5.687256,0.833954 -5.687256,-0.365326c0,-0.36615 0.753357,-0.460373 3.671173,-0.460373l3.670334,0l-0.159073,-2.2341c-0.300018,-4.201202 -4.023956,-7.185776 -7.347275,-5.887314m-46.7089,1.148056c2.588928,1.389374 1.325378,7.294876 -1.674057,7.821365l-1.236343,0.217377l0,-4.257416l0,-4.25824l1.108604,0.052063c0.609116,0.028931 1.420158,0.219864 1.801796,0.42485m-38.59343,0.053726c2.635086,0.920731 2.786758,6.512161 0.209351,7.738708c-2.370514,1.128204 -2.441406,1.01828 -2.441406,-3.794556c0,-4.762421 -0.01812,-4.731003 2.232056,-3.944153m52.305489,2.491959c1.135811,0.436401 0.548111,1.121582 -0.961884,1.121582c-1.645187,0 -1.711121,-0.055374 -0.965187,-0.802551c0.552238,-0.554596 1.086357,-0.643036 1.927071,-0.319031m35.610504,0.319031c0.745941,0.747177 0.680008,0.802551 -0.965179,0.802551c-1.059982,0 -1.483643,-0.133896 -1.483643,-0.468643c0,-0.898422 1.660858,-1.124878 2.448822,-0.333908m-105.843239,14.383972c-2.874134,0.836426 -5.110294,5.593887 -2.629322,5.593887c0.984146,0 1.155575,-0.125626 1.34433,-0.987686c0.609116,-2.78125 4.781414,-3.109375 5.787819,-0.455414c0.55307,1.460464 -0.46899,2.921753 -6.531292,9.331436c-2.727406,2.883728 -2.780983,2.840759 3.656338,2.947372l5.495216,0.090103l0,-1.164566l0,-1.165405l-3.337349,0l-3.338165,0l2.266655,-2.333267c1.24625,-1.282761 2.654049,-2.91185 3.127998,-3.619339l0.861324,-1.286896l0.164848,2.893646c0.306606,5.399673 3.747818,8.340439 7.608559,6.503082c4.853958,-2.309311 4.966049,-13.573975 0.159904,-16.069244c-2.907097,-1.509232 -6.76289,0.432266 -7.603615,3.828445c-0.13105,0.5298 -0.170624,0.490952 -0.201942,-0.199203c-0.128586,-2.893646 -3.56237,-4.857468 -6.831306,-3.906952m32.558334,4.479752c-4.818497,7.519684 -4.341278,11.660568 1.413567,12.258133c6.129883,0.636429 7.615997,-9.045456 1.538033,-10.019928l-1.307243,-0.20993l1.214127,-1.862152c0.667625,-1.024048 1.399544,-2.058868 1.626213,-2.299393c0.226669,-0.239685 0.412117,-0.574417 0.412117,-0.743866c0,-0.168594 0.222542,-0.306641 0.49456,-0.306641c0.863785,0 0.519264,-0.476898 -0.775612,-1.074478c-0.689896,-0.318207 -1.316322,-0.573608 -1.392975,-0.566986c-0.07666,0.006607 -1.527313,2.177887 -3.222786,4.825241m-12.087486,-3.504471c-0.631378,1.224091 -0.417068,1.643143 0.841545,1.643143l0.963524,0l0.089035,6.860138l0.089012,6.860123l1.153954,0l1.153931,0l0.09314,-7.438705c0.117043,-9.34465 0.213478,-8.926422 -2.068855,-8.926422c-1.669075,0 -1.836403,0.071899 -2.315285,1.001724m26.630394,-0.231415c-4.448425,1.617508 -3.703323,6.741119 1.275101,8.766922c2.851036,1.160431 3.742058,3.927628 1.309708,4.066498c-0.471458,0.027252 -1.153099,0.066116 -1.515762,0.087601c-0.362663,0.021484 -1.234734,-0.149612 -1.936958,-0.379379c-2.027634,-0.663696 -2.184265,-0.58847 -2.184265,1.043076c0,1.575348 -0.178856,1.437317 2.637596,2.029114c3.506302,0.737259 7.547577,-1.308395 7.611023,-3.852432c0.027199,-1.052979 0.045349,-1.071167 0.28437,-0.280182c0.983307,3.249069 2.379578,4.128479 6.50161,4.093765c2.764511,-0.023132 3.406593,-0.408295 3.406593,-2.043152c0,-1.041428 -0.072533,-1.134003 -0.741814,-0.93811c-2.969742,0.868683 -3.593704,0.930664 -4.515198,0.447144c-0.443443,-0.232239 -1.08799,-0.905869 -1.431709,-1.496841l-0.625595,-1.073639l3.465103,0c4.04538,0 4.508606,-0.124817 4.508606,-1.211685c0,-7.055191 -8.830933,-8.286713 -10.571724,-1.474518l-0.428596,1.677841l-0.848969,-0.952988c-0.467331,-0.524826 -1.997963,-1.508392 -3.401665,-2.186142c-2.541946,-1.226563 -3.523613,-2.815125 -2.234489,-3.61438c0.618172,-0.383499 3.982712,-0.241348 4.501175,0.190094c0.438492,0.365326 0.614075,0.307465 1.146507,-0.379364c0.642105,-0.828171 0.72699,-2.157227 0.13353,-2.101028c-0.18132,0.017365 -0.806923,-0.16861 -1.390488,-0.413254c-1.277565,-0.535583 -3.490646,-0.537247 -4.95369,-0.004959m-33.366089,1.88446c2.814789,1.510895 2.705978,9.528152 -0.154945,11.407669c-2.049911,1.347229 -4.165722,-0.871979 -4.405579,-4.620255c-0.338768,-5.295532 1.696289,-8.324738 4.560524,-6.787415m54.624092,1.764633c-1.962532,0.549637 -2.030128,0.621552 -1.644356,1.758835c0.336288,0.993484 0.342049,0.995148 3.284584,0.584351c1.637764,-0.228119 1.735863,-0.199188 2.114182,0.633118c0.486305,1.070358 0.472282,1.084396 -1.359177,1.30838c-0.816002,0.099197 -1.780357,0.253754 -2.143021,0.34137c-0.362663,0.088425 -0.838249,0.172745 -1.056686,0.185959c-0.746773,0.047928 -2.045753,1.677841 -2.263359,2.841583c-0.64621,3.457336 3.041458,5.620346 6.388687,3.745804c1.315491,-0.737259 1.382256,-0.743057 1.382256,-0.121506c0,0.537247 1.403671,1.024063 1.959229,0.679398c0.377487,-0.233902 0.49617,-7.991638 0.147522,-9.640549c-0.450043,-2.129944 -3.621704,-3.208557 -6.80986,-2.316742m10.706894,-0.136383c-4.456665,1.09845 -3.667877,5.319504 1.369034,7.326294c1.75647,0.700073 2.230423,1.429901 1.35672,2.091934c-0.874512,0.662872 -1.810028,0.636429 -3.760193,-0.106613c-1.773773,-0.676102 -2.002075,-0.549652 -2.002075,1.104233c0,1.308365 0.842377,1.66626 3.92421,1.66626c3.399994,0 4.445129,-0.55542 5.037766,-2.67627l0.37915,-1.353027l0.711304,1.353027c3.579712,6.805573 13.285126,0.525665 9.976624,-6.455139c-2.666412,-5.626968 -11.176712,-3.203613 -10.743973,3.058945c0.129395,1.868774 -0.007431,1.976227 -0.781372,0.612457c-0.309921,-0.546341 -0.90834,-1.124069 -1.329514,-1.284409c-4.333023,-1.652222 -5.305649,-3.059799 -1.981476,-2.866379c1.042664,0.060333 2.13562,0.20993 2.429047,0.333084c0.356873,0.149597 0.590973,0.024796 0.704712,-0.373581c0.093979,-0.328964 0.276962,-0.855453 0.406357,-1.171188c0.403061,-0.980255 -3.410721,-1.823303 -5.69632,-1.259628m23.28067,-0.08017c-0.485474,0.074387 -1.059982,0.348785 -1.276764,0.610794c-0.516785,0.624847 -0.97261,0.60585 -0.97261,-0.039658c0,-0.390121 -0.28598,-0.490967 -1.172867,-0.413254l-1.172913,0.102478l0.002502,5.707138c0.001633,6.32785 0.009048,6.360092 1.362442,6.360092c1.379791,0 1.640259,-0.772812 1.640259,-4.874008c0,-4.572311 0.832458,-5.716232 3.43544,-4.723572l0.850601,0.32399l0,4.464874l0,4.465698l0.824219,0.207458c2.405975,0.605011 2.401031,0.629807 2.152939,-9.695114c-0.038757,-1.613358 -2.976334,-2.906036 -5.673248,-2.496918m-40.67794,3.144089c0.803642,1.150528 0.662689,1.248886 -1.802605,1.248886l-2.316933,0l0.511841,-0.991837c0.666824,-1.293503 2.778511,-1.443939 3.607697,-0.25705m31.2313,0.331436c0.899246,1.194336 0.641281,4.778137 -0.405518,5.627792c-2.303726,1.871246 -4.901749,-1.006699 -3.940689,-4.364868c0.690735,-2.415924 2.977966,-3.081268 4.346207,-1.262924m-56.516533,2.321716c1.62458,1.520798 0.28437,4.348328 -2.0606,4.348328c-2.340851,0 -3.692604,-2.841583 -2.0606,-4.330154c1.391319,-1.269547 2.777702,-1.276154 4.121201,-0.018173m36.019325,1.688583c0,1.963806 -2.742241,3.267242 -3.77253,1.792709c-0.661057,-0.945541 -0.647865,-1.114136 0.145859,-1.91008c1.027016,-1.029846 3.626671,-0.946365 3.626671,0.117371" id="path6"/>
   <path fill-rule="evenodd" fill="#5472c1" d="m1.41788,1.220681c-0.569552,0.5703 -0.083261,2.21012 1.363294,4.601249c0.871215,1.438974 4.085755,6.78244 7.144519,11.873817c3.057933,5.091375 6.116684,10.075304 6.797508,11.075394c6.01943,8.846268 10.329388,16.804848 10.086235,18.624851c-0.095617,0.710808 -0.058523,1.16209 0.0816,1.003399c0.462397,-0.52319 5.298218,-8.74791 5.298218,-9.011574c0,-0.215721 -6.498312,-11.112587 -20.57388,-34.503163l-2.337537,-3.884654l-3.820357,0c-2.100991,0 -3.91927,0.099183 -4.039601,0.220681m8.022327,62.741294c0,0.172745 1.987242,3.476357 8.562221,14.235191c2.667234,4.364037 6.975544,11.529152 9.574377,15.922119l4.724548,7.987511l1.097897,-1.829094c0.604168,-1.005051 1.097885,-1.946457 1.097885,-2.091103c0,-0.144638 0.111271,-0.312424 0.247265,-0.373581c0.682472,-0.304169 1.401218,-2.347328 1.401218,-3.985497c0,-1.789413 -2.298805,-6.201393 -7.139572,-13.702904c-0.606647,-0.939758 -1.10284,-1.777855 -1.10284,-1.861328c0,-0.084312 -1.49929,-2.587845 -3.331587,-5.564972c-1.833101,-2.976311 -3.567301,-5.800537 -3.854971,-6.275787c-1.216578,-2.013405 -2.872475,-2.60685 -7.272274,-2.60685c-2.202372,0 -4.004167,0.066124 -4.004167,0.146294m14.12337,19.017448c0.13022,0.893471 -0.562128,1.45137 -1.172071,0.943886c-0.530809,-0.442192 -0.539869,-1.013321 -0.023077,-1.531548c0.559662,-0.561211 1.064098,-0.312424 1.195148,0.587662m-19.480929,41.250893c0.951997,0.06694 2.50981,0.06694 3.461807,0c0.951997,-0.06694 0.17309,-0.121506 -1.730903,-0.121506c-1.903994,0 -2.6829,0.054565 -1.730904,0.121506m-2.38042,3.051514c-0.323091,0.35788 -0.515974,0.923233 -0.428599,1.256317c0.175569,0.672791 13.760707,23.464966 14.924536,25.038666c0.874512,1.182739 9.422716,15.146011 10.227179,16.706482c0.39728,0.770325 0.51844,1.603455 0.416229,2.849854l-0.145885,1.760498l2.893915,-4.850876c1.59161,-2.667999 2.844452,-4.93515 2.784283,-5.038467c-0.460751,-0.78685 -20.681026,-34.396545 -21.740996,-36.138855l-1.357532,-2.228302l-3.493125,-0.003304c-3.057116,-0.00248 -3.566497,0.078522 -4.080005,0.647987" id="path7"/>
   <path fill-rule="evenodd" fill="#95969a" d="m26.667665,46.789326c0.003298,0.727337 0.070879,0.986038 0.150013,0.574432c0.079123,-0.410782 0.075838,-1.005878 -0.006592,-1.322437c-0.082418,-0.315731 -0.147535,0.020664 -0.143421,0.748005m-24.73712,17.210674c-1.044305,0.733124 -0.923962,2.01754 0.36927,3.952423c0.605816,0.906693 1.477861,2.31839 1.937791,3.136658c0.881105,1.567909 6.086196,10.261261 7.325021,12.232521c6.508202,10.359634 6.517273,10.411697 2.905454,16.283318c-1.314661,2.136559 -2.390298,3.948296 -2.390298,4.025978c0,0.078522 -0.593459,1.037292 -1.318789,2.132431c-0.725328,1.095139 -1.318788,2.070442 -1.318788,2.167137c0,0.097542 -1.854543,3.24575 -4.121201,6.997337c-5.716939,9.461205 -5.951849,8.939674 4.121201,9.143822c4.079991,0.082657 5.760626,0.060333 3.735459,-0.049591l-3.682699,-0.200844l2.655696,-4.463226c4.769887,-8.017265 10.558522,-17.522263 10.669806,-17.522263c0.91572,0 3.828585,6.50721 3.701662,8.268524c-0.079134,1.094315 -0.044519,1.876205 0.075006,1.73735c0.483824,-0.558739 5.594116,-9.366974 5.594116,-9.64138c0,-0.495911 -7.853363,-13.649185 -21.68495,-36.318207l-1.462195,-2.396919l-3.188997,0c-2.353203,0 -3.381855,0.134727 -3.922567,0.514931m20.437884,18.391762c-0.516792,0.518227 -0.507732,1.089355 0.023077,1.531548c0.609943,0.507484 1.302292,-0.050415 1.172071,-0.943886c-0.13105,-0.900085 -0.635487,-1.148872 -1.195148,-0.587662" id="path8"/>
   <path fill-rule="evenodd" fill="#c7c7ca" d="m18.756609,108.365219c-2.173532,3.59124 -5.147386,8.537971 -6.607945,10.992744l-2.655696,4.463226l3.517851,0.099182c6.067234,0.171089 6.504087,-0.081009 9.789507,-5.651756c1.201742,-2.037376 2.487562,-4.194603 2.858469,-4.793831c1.513308,-2.44651 1.262732,-4.927734 -0.858028,-8.491692c-1.0303,-1.730736 -1.922138,-3.147392 -1.982296,-3.147392c-0.060171,0 -1.887524,2.938286 -4.061861,6.529518m30.007303,36.119019c0,0.818253 0.064301,1.153 0.142605,0.743866c0.079121,-0.409119 0.079121,-1.078598 0,-1.487732c-0.078304,-0.409134 -0.142605,-0.074387 -0.142605,0.743866m116.065479,5.455048c0.001663,1.091019 0.063461,1.49765 0.136826,0.903381c0.073364,-0.594254 0.071701,-1.486908 -0.003326,-1.983643c-0.074966,-0.496735 -0.135162,-0.010742 -0.133499,1.080261m-36.61525,0c0.003296,0.727341 0.070862,0.986038 0.150009,0.574432c0.079117,-0.410782 0.075821,-1.00589 -0.006592,-1.322433c-0.082413,-0.315735 -0.147537,0.02066 -0.143417,0.748001m23.129852,18.018188c0,3.000275 0.049454,4.227661 0.111267,2.727524c0.060974,-1.500153 0.060974,-3.95491 0,-5.455063c-0.061813,-1.500137 -0.111267,-0.272751 -0.111267,2.727539m10.543686,1.487732c0.000809,2.363861 0.053558,3.287903 0.11702,2.052261c0.063477,-1.234833 0.063477,-3.168884 -0.000824,-4.297928c-0.06427,-1.128189 -0.116196,-0.118179 -0.116196,2.245667" id="path9"/>
  </g>
 </g>
</svg>